<svg aria-hidden="true" style="position: absolute; width: 0; height: 0; overflow: hidden;" version="1.1" xmlns="http://www.w3.org/2000/svg" xmlns:xlink="http://www.w3.org/1999/xlink">
<defs>
<symbol id="icon-menu" viewBox="0 0 36 32">
<path fill="#fff" style="fill: var(--color1, #fff)" d="M6.554 24h24.012v-2.667h-24.012v2.667zM6.554 17.333h24.012v-2.667h-24.012v2.667zM6.554 8v2.667h24.012v-2.667h-24.012z"></path>
</symbol>
<symbol id="icon-dandruff" viewBox="0 0 33 32">
<path fill="#fff" style="fill: var(--color1, #fff)" d="M20.381 18h-0.79l-0.28-0.27c0.98-1.14 1.57-2.62 1.57-4.23 0-3.59-2.91-6.5-6.5-6.5s-6.5 2.91-6.5 6.5c0 3.59 2.91 6.5 6.5 6.5 1.61 0 3.090-0.59 4.23-1.57l0.27 0.28v0.79l5 4.99 1.49-1.49-4.99-5zM14.381 18c-2.49 0-4.5-2.010-4.5-4.5s2.010-4.5 4.5-4.5c2.49 0 4.5 2.010 4.5 4.5s-2.010 4.5-4.5 4.5z"></path>
</symbol>
</defs>
</svg>
